<svg xmlns="http://www.w3.org/2000/svg" xmlns:xlink="http://www.w3.org/1999/xlink" width="500" zoomAndPan="magnify" viewBox="0 0 375 374.999991" height="500" preserveAspectRatio="xMidYMid meet" version="1.0"><defs><clipPath id="6561391a8a"><path d="M 59.773438 50.105469 L 315.523438 50.105469 L 315.523438 374.847656 L 59.773438 374.847656 Z M 59.773438 50.105469 " clip-rule="nonzero"/></clipPath></defs><path fill="#35913b" d="M 187.5 375 C 84.113281 375 0 290.894531 0 187.503906 C 0 84.113281 84.113281 0 187.5 0 C 290.890625 0 375 84.113281 375 187.503906 C 375 290.894531 290.894531 375 187.5 375 Z M 187.5 13.109375 C 91.339844 13.109375 13.109375 91.34375 13.109375 187.503906 C 13.109375 283.664062 91.339844 361.890625 187.5 361.890625 C 283.65625 361.890625 361.890625 283.664062 361.890625 187.503906 C 361.890625 91.34375 283.65625 13.109375 187.5 13.109375 Z M 187.5 13.109375 " fill-opacity="1" fill-rule="nonzero"/><g clip-path="url(#6561391a8a)"><path fill="#35913b" d="M 277.476562 104 C 268.171875 90.839844 277.546875 58.988281 245.769531 56.875 C 200.839844 53.886719 190.253906 144.769531 188.140625 170.871094 C 189.554688 145.621094 191.605469 59.410156 154.359375 50.992188 C 124.242188 44.183594 127.191406 78.671875 113.753906 88.136719 C 100.574219 97.425781 68.667969 88.066406 66.554688 119.792969 C 63.5625 164.648438 154.589844 175.21875 180.734375 177.328125 C 155.441406 175.917969 69.089844 173.871094 60.660156 211.054688 C 53.839844 241.125 88.382812 238.179688 97.867188 251.59375 C 107.164062 264.753906 97.796875 296.605469 129.570312 298.71875 C 147.121094 299.886719 156.886719 285.777344 164.265625 271.542969 C 167.660156 264.992188 172.28125 256.738281 173.292969 249.335938 C 174.914062 237.738281 175.582031 232.914062 175.847656 220.730469 C 175.941406 216.394531 180.019531 212.789062 184.273438 211.726562 C 171.265625 275.054688 179.628906 331.21875 199.929688 374.847656 C 203.339844 373.375 206.742188 371.898438 210.148438 370.421875 C 187.96875 329.871094 178.023438 277.1875 191.15625 212.683594 C 193.675781 213.878906 195.707031 217.078125 195.765625 219.835938 C 196.191406 240.363281 193.214844 233.4375 194.328125 260.6875 C 194.714844 270.144531 195.460938 273.527344 198.347656 280.914062 C 202.558594 291.683594 208.984375 301.890625 220.984375 304.601562 C 251.101562 311.410156 248.148438 276.921875 261.589844 267.453125 C 274.769531 258.171875 306.671875 267.527344 308.789062 235.800781 C 311.78125 190.949219 220.753906 180.375 194.609375 178.265625 C 219.902344 179.675781 306.253906 181.722656 314.683594 144.539062 C 321.503906 114.46875 286.957031 117.417969 277.476562 104 " fill-opacity="1" fill-rule="nonzero"/></g></svg>